<svg version="1.2" xmlns="http://www.w3.org/2000/svg" viewBox="0 0 519 158" width="519" height="158">
	<title>devx-group-logo-svg</title>
	<style>
		.s0 { fill: #49b27c } 
		.s1 { fill: #ffffff } 
		.s2 { fill: #079247 } 
	</style>
	<g id="Layer">
		<g id="Layer_1">
			<g id="Layer">
				<path id="path2" fill-rule="evenodd" class="s0" d="m451 75.7l50.4-73.4h-34.2l-54.5 73.9 66 80.4h38.8l-66.5-80.8z"/>
				<path id="path4" fill-rule="evenodd" class="s1" d="m282.1 124.6l-3.3-10.9-21.7-62.7-17.1-48.2c8.1 0.1 15.3 0.2 21.6 0.2 6.3 0 9.9 0 18.2-0.2 1.3 5.3 2.4 9.3 3.2 12 1.1 3.5 3.1 10 6.1 19.3l13.1 42.2c1.3 4.4 2.9 10.1 4.8 17.2l4.1-10.3 28.1-61.4 23.4 29-26.5 52.5c-3 5.9-6.3 13-10 21.2-10-0.1-17.1-0.2-21.5-0.2q-5.9 0-22.5 0.3z"/>
				<path id="path6" fill-rule="evenodd" class="s1" d="m131.2 124.6c1.5-15.4 2.5-28.2 3.3-38.6 0.6-10.3 1.3-24.1 2.1-41.3 0.7-17.1 1.1-28.5 1.1-34.1v-7.9c14 0.1 30.9 0.2 50.8 0.2 19.9 0 34.6 0 48.6-0.2l-0.2 3c0 0.7-0.2 3.3-0.4 7.8l-0.6 9.7c-0.1 2.1-0.2 4.2-0.2 6.3-11.5-0.5-21-0.7-28.9-0.7-7.9 0-14.3 0-17.4 0-3 0-7.6 0.1-14 0.4l-1.1 20.5c7 0.2 15.2 0.3 24.5 0.3 9.3 0 12.2-0.2 26.6-0.6-0.6 7.6-1.1 16.7-1.7 27.2-10.3-0.1-18.2-0.2-23.7-0.2-8.2 0-17.4 0.2-27.5 0.6l-1.1 21.7h10.3c3 0 9.3 0 18.8-0.3l18.5-0.4c2.8 0 7.3-0.3 13.7-0.7-0.7 8.9-1.3 18-1.8 27.4-14.5-0.1-30.4-0.2-47.7-0.2h-39.2l-12.7 0.1z"/>
				<path id="path8" fill-rule="evenodd" class="s1" d="m1.4 124.6c1.3-13.6 2.2-24.4 2.7-32.6 0.7-12.2 1.5-27.8 2.2-47.1 0.5-14.8 0.8-25.4 0.8-31.7v-10.4c6.9 0.2 13 0.3 18 0.3 5 0 11.3-0.1 19.1-0.4 7.9-0.3 15.3-0.4 22.2-0.4 6.9 0 14.9 0.5 20.9 1.4 6 1 11.5 2.9 16.8 5.9 5.2 3 9.6 6.9 13 11.7 3.4 4.8 6.2 10.4 8 16.9 1.8 6.5 2.8 13.1 2.8 20 0 6.9-0.7 13.2-2.1 19.4-1.4 6.2-3.4 11.8-5.9 16.9-2.5 5-5.5 9.3-8.9 12.9-3.5 3.6-7.4 6.7-11.8 9.2q-5 2.9-9.9 4.5c-3.3 1.1-7.9 1.9-13.7 2.6-6.4 0.7-13.7 1.1-21.8 1.1l-36-0.3c-3.2 0-8.6 0-16.3 0.3zm48.8-26.5c6.1 0 11.5-0.6 16.2-1.6 4.7-1 8.9-3.3 12.5-6.9 3.6-3.5 6.3-8 8-13.5 1.8-5.5 2.6-11.1 2.6-16.9 0-5.8-1.3-13-3.8-17.9-2.5-4.8-5.9-8.2-10.2-10.1-4.3-1.9-10-2.8-17.3-2.8-7.3 0-9.3 0.2-15.1 0.6l-3.1 68.7c3.3 0.2 6.7 0.4 10.2 0.4zm-10.2-0.2v-0.2z"/>
				<path id="path12" fill-rule="evenodd" class="s0" d="m396 54.9l-42.5-52.6h37.1l22.5 28.2z"/>
				<path id="path14" fill-rule="evenodd" class="s2" d="m354.2 156.5l43.2-60.6 20.1 26.8-24.4 33.8h-39z"/>
				<path id="path16" fill-rule="evenodd" class="s2" d="m451 75.7l-38.3 0.5 66 80.3h38.8z"/>
				<path id="Layer" class="s1" d="m1.4 146.8h324.7v9.7h-324.7z"/>
			</g>
		</g>
	</g>
</svg>