<?xml version="1.0" encoding="UTF-8"?>
<svg width="3500px" height="3000px" viewBox="0 0 3500 3000" version="1.1" xmlns="http://www.w3.org/2000/svg" xmlns:xlink="http://www.w3.org/1999/xlink">
    <title>MainLogo_Elegans</title>
    <defs>
        <polygon id="path-1" points="0 0 432 0 432 769 0 769"></polygon>
    </defs>
    <g id="MainLogo_Elegans" stroke="none" fill="none" fill-rule="evenodd" stroke-width="1">
        <g id="Wordmark" transform="translate(149, 1459)">
            <g id="Group-3" transform="translate(1230, 171)">
                <mask id="mask-2" fill="white">
                    <use xlink:href="#path-1"></use>
                </mask>
                <g id="Clip-2"></g>
                <path d="M344.205449,493.737766 L344.205449,46.6005788 L263.3533,46.6005788 C247.575682,46.6005788 229.331357,47.5833185 208.629632,49.5768761 C187.918599,51.5517148 168.352491,56.858509 149.959232,65.4317426 C131.547357,74.0330545 116.26308,87.0894529 104.106402,104.591578 C91.9311076,122.121782 86.5136599,146.081911 87.8354427,176.471965 L87.8354427,364.849119 C86.5136599,395.267251 91.9311076,419.058911 104.106402,436.242816 C116.26308,453.43608 131.547357,466.314649 149.959232,474.906602 C168.352491,483.498554 187.918599,488.77727 208.629632,490.761468 C229.331357,492.745666 247.575682,493.737766 263.3533,493.737766 L344.205449,493.737766 Z M431.964377,0 L431.964377,599.817493 C432.606652,638.818218 424.564256,669.72304 407.799954,692.522601 C391.044962,715.33152 370.166379,732.683895 345.192131,744.579724 C320.199267,756.475554 293.912545,764.066048 266.313349,767.379285 C238.704844,770.683162 87.6399678,767.912772 87.6399678,767.912772 L87.6399678,725.739201 L168.687591,725.739201 C184.465209,725.739201 202.709535,724.747102 223.411259,722.762904 C244.122292,720.788065 263.669783,715.481271 282.081659,706.898678 C300.484226,698.297366 315.610261,685.409437 327.441147,668.234892 C339.272034,651.041627 344.857032,626.922388 344.205449,595.858456 L344.205449,541.330443 L237.708853,541.330443 C223.913909,541.330443 208.462082,540.675284 191.37199,539.346245 C174.26328,538.026566 156.856705,535.218739 139.105721,530.913403 C121.354737,526.626786 103.938852,520.505722 86.8487598,512.578289 C69.7493588,504.650856 54.8001819,494.233815 41.9919208,481.345886 C29.165043,468.457958 18.8141808,452.762201 10.9207176,434.249258 C3.03656264,415.755034 -0.584377461,393.601274 0.07651392,367.825416 L0.07651392,172.512928 C-0.584377461,146.727711 3.03656264,124.59267 10.9207176,106.079727 C18.8141808,87.5855024 29.165043,71.8803867 41.9919208,58.992458 C54.8001819,46.1045293 69.7493588,35.8653179 86.8487598,28.2561051 C103.938852,20.6656112 121.354737,14.7130167 139.105721,10.407681 C156.856705,6.12106418 174.26328,3.31323657 191.37199,1.98419817 C208.462082,0.6645192 223.913909,0 237.708853,0 L431.964377,0 Z" id="Fill-1" fill="#000000" mask="url(#mask-2)"></path>
            </g>
            <path d="M99,500.395604 C173.536773,465.413101 349.138929,451.137772 350.974948,348.162819 C352.951479,237.465913 237.563271,181.963208 149.275086,243.336841 C133.397264,254.368202 99,291.884179 99,314.947203 L99,500.395604 Z M226.170457,716.572466 C133.351092,710.996877 16.7436616,680.111667 4.24532378,570.038161 C-1.21684335,521.987237 -2.40671509,345.296191 6.70938888,301.494669 C40.2693934,140.325613 346.684789,128.389931 424.813454,272.477328 C526.823876,460.627748 214.890098,511.713959 98.891657,556.524131 C98.5543706,601.278266 128.788356,638.458194 169.084721,654.577901 C180.524354,659.163519 218.300439,671.827669 240.046048,672.331994 L392.602596,672.331994 L392.602596,716.572466 L314.933015,716.572466 C314.933015,716.572466 266.719787,717.534418 242.819292,716.572466 C237.291542,716.357661 231.688839,716.908682 226.170457,716.572466 L226.170457,716.572466 Z" id="e1" fill="#000000"></path>
            <path d="M800,500.395604 C874.536773,465.413101 1050.13893,451.137772 1051.97495,348.162819 C1053.95148,237.465913 938.563271,181.963208 850.275086,243.336841 C834.397264,254.368202 800,291.884179 800,314.947203 L800,500.395604 Z M705.245324,570.038161 C699.783157,521.987237 698.593285,345.296191 707.709389,301.494669 C741.269393,140.325613 1047.68479,128.389931 1125.81345,272.477328 C1227.82388,460.627748 915.890098,511.713959 799.891657,556.524131 C799.554371,601.278266 829.788356,638.458194 870.084721,654.577901 C881.524354,659.163519 919.300439,671.827669 941.046048,672.331994 L1093.6026,672.331994 L1093.6026,716.572466 L1015.93302,716.572466 C1015.93302,716.572466 967.719787,717.534418 943.819292,716.572466 C938.291542,716.357661 932.688839,716.908682 927.170457,716.572466 C834.351092,710.996877 717.743662,680.111667 705.245324,570.038161 Z" id="Fill-4" fill="#000000"></path>
            <g id="Group-11" transform="translate(2790, 172)" fill="#000000">
                <path d="M191.738669,46.9099047 C160.656234,46.9099047 135.758616,53.7379123 117.05513,67.3752717 C98.3330158,81.021959 89.6798595,99.1553563 91.1049756,121.775463 C92.5114628,140.412566 100.456718,154.880107 114.940742,165.187413 C129.406137,175.513376 150.065664,184.328222 176.910009,191.650607 C196.666032,196.986154 215.742097,201.976569 234.11026,206.621853 C252.46911,211.276465 268.704257,215.278125 282.843645,218.59885 C331.567715,230.575847 370.399802,248.541342 399.367849,272.495336 C428.317268,296.458658 443.490564,332.063173 444.924995,379.308881 C445.614266,405.259041 441.553151,428.560084 432.732334,449.184025 C423.902202,469.817293 411.37422,487.111181 395.129759,501.084345 C378.875983,515.057508 359.641572,525.887175 337.398582,533.526709 C315.155593,541.184897 291.520315,544.529964 266.808986,544.529964 L5.99594443,544.529964 L5.99594443,499.533869 L220.199305,496.621976 C244.193417,496.621976 264.862259,493.301251 282.168572,486.641145 C299.46557,479.999695 313.730476,471.81346 324.684311,461.161021 C335.619516,450.517911 343.220135,438.540914 347.458226,425.220703 C351.696316,411.919147 353.44744,398.27246 352.758168,384.299297 C351.333051,359.011416 340.397846,339.049754 319.924609,324.404984 C299.432742,309.769541 272.253076,298.799956 238.357666,291.468242 C232.694459,290.143684 224.218278,288.147517 212.929122,285.470416 C201.621338,282.821298 189.782627,279.985623 177.440935,276.991374 C165.080614,273.997125 153.418879,271.170777 142.483674,268.503004 C131.520525,265.853886 123.947849,263.85772 119.700444,262.514505 C106.995487,259.19378 93.7502893,254.539169 79.9741663,248.541342 C66.2166723,242.552844 53.4930861,234.736081 41.8499801,225.081726 C30.1882452,215.446027 20.4732375,203.795506 12.7142717,190.148818 C4.93667693,176.520787 0.698586359,160.374228 0,141.737125 C0,117.13018 5.11365215,95.9932052 15.3595854,78.3541856 C25.5868897,60.7244938 39.8939383,46.0890513 58.2714168,34.4292023 C76.6209518,22.7973368 98.3330158,14.1410649 123.416923,8.47904222 C148.472887,2.82634741 175.848158,0 205.514792,0 L378.186711,0 L378.186711,46.4248549 L191.738669,46.9099047 Z" id="Fill-9"></path>
            </g>
            <path d="M2018.23465,173.291921 L2019.32036,173.408597 C2048.37485,175.68553 2072.14782,181.050163 2095.68369,192.521357 C2120.62643,204.66893 2141.72034,227.559332 2159.02145,251.18324 C2176.31322,274.825792 2184.61813,306.21557 2183.9642,345.352572 L2183.9642,719 L1986.44939,719 C1965.82258,719 1941.56179,717.154091 1913.6203,713.434304 C1885.6975,709.733163 1859.26006,701.790161 1834.31731,689.633264 C1809.3839,677.485691 1788.26197,659.772422 1770.97954,636.474811 C1753.67843,613.186524 1745.37352,581.638259 1746.03679,541.802049 C1746.69072,500.632683 1757.50859,467.210541 1778.46236,441.554269 C1799.4068,415.90732 1826.3487,395.984553 1859.26006,381.813938 C1892.19009,367.634 1929.23988,358.69346 1970.48416,354.973674 C2011.70976,351.272533 2053.29035,350.769103 2095.17923,353.463385 L2095.17923,349.407978 C2095.83316,318.363143 2090.02252,293.713731 2077.72864,275.487709 C2067.08248,259.740375 2054.16173,243.830108 2038.84186,233.91315 L2039,234 C2000.68885,212.416045 1837,208.199774 1837,208.199774 L1837,173.343409 C1837,173.343409 1968.53483,168.105233 2018.23465,173.291921 Z M1997.52102,403.48898 C1966.51987,405.864201 1939.02988,411.937315 1915.03232,421.699009 C1891.04412,431.488645 1871.70001,445.823804 1857.04679,464.695168 C1842.38422,483.585162 1834.70649,508.54827 1834.05108,539.565864 C1833.3863,570.592772 1839.21013,594.875915 1851.55067,612.405978 C1863.87247,629.954671 1879.37773,643.106876 1898.03834,651.862593 C1916.68958,660.636939 1936.36141,666.030088 1957.03508,668.051355 C1977.68066,670.072621 1996.02293,671.087912 2012.02442,671.087912 L2095,671.087912 L2095,402.985992 C2061.01203,400.955411 2028.5128,401.132388 1997.52102,403.48898 Z" id="Fill-15" fill="#000000"></path>
            <path d="M2617.97372,199.619057 C2643.29089,211.472994 2664.46779,228.741347 2681.47645,251.452073 C2698.46646,274.1628 2706.61644,307.608406 2705.9637,345.770255 L2705.9637,716.569297 L2616.96663,716.569297 L2616.96663,349.721567 C2617.63802,319.462343 2611.97779,295.586725 2599.97662,278.150628 C2587.97544,260.723849 2572.63594,247.71434 2553.97677,239.150057 C2535.30827,230.604412 2515.48348,225.329783 2494.49308,223.363446 C2473.48402,221.378471 2454.98337,220.390643 2438.99113,220.390643 L2356.99707,220.390643 L2356.99707,716.569297 L2268,716.569297 L2268,171 L2464.98902,171 C2485.6344,171 2509.98177,172.817231 2537.98452,176.433054 C2565.97794,180.048878 2592.62858,187.783758 2617.97372,199.619057 Z" id="Fill-19" fill="#000000"></path>
            <rect id="Rectangle-2" fill="#000000" x="529" y="0" width="88" height="718"></rect>
        </g>
        <g id="GROUP" transform="translate(1187, 2501)" fill="#000000">
            <path d="M122.825,127.134 L122.825,143.068 L174.482,143.068 C172.426,178.277 149.553,199.608 111.26,199.608 C70.397,199.608 39.3,166.712 39.3,125.849 C39.3,84.729 70.397,51.833 111.26,51.833 C128.479,51.833 143.642,57.487 155.721,67.51 L167.8,55.431 C152.38,42.324 132.848,34.871 111.26,34.871 C60.888,34.871 22.338,75.734 22.338,125.849 C22.338,176.221 60.888,216.57 111.26,216.57 C161.632,216.57 193.5,187.272 193.5,127.134 L122.825,127.134 Z" id="Path" fill-rule="nonzero"></path>
            <path d="M347.7,144.867 C381.881,144.096 394.731,117.625 394.731,91.154 C394.731,63.655 381.624,36.927 345.644,36.927 L279.852,36.927 L279.852,214 L297.071,214 L297.071,144.867 L326.883,144.867 L375.713,214 L396.53,214 L347.7,144.867 Z M345.644,53.889 C369.288,53.889 377.769,72.393 377.769,91.154 C377.769,109.915 369.288,127.905 344.359,127.905 L297.071,127.905 L297.071,53.889 L345.644,53.889 Z" id="Shape" fill-rule="nonzero"></path>
            <path d="M475.686,125.849 C475.686,176.221 514.236,216.57 564.608,216.57 C614.98,216.57 653.787,176.221 653.787,125.849 C653.787,75.734 614.98,34.871 564.608,34.871 C514.236,34.871 475.686,75.734 475.686,125.849 Z M492.648,125.849 C492.648,84.729 523.745,51.833 564.608,51.833 C605.471,51.833 636.825,84.729 636.825,125.849 C636.825,166.712 605.471,199.608 564.608,199.608 C523.745,199.608 492.648,166.712 492.648,125.849 Z" id="Shape" fill-rule="nonzero"></path>
            <path d="M805.674,199.608 C780.745,199.608 759.928,181.875 759.928,154.119 L759.928,36.927 L742.966,36.927 L742.966,154.119 C742.966,192.155 771.493,216.57 805.674,216.57 C839.855,216.57 868.382,192.155 868.382,154.119 L868.382,36.927 L851.42,36.927 L851.42,154.119 C851.42,181.875 830.603,199.608 805.674,199.608 Z" id="Path" fill-rule="nonzero"></path>
            <path d="M969.383,36.927 L969.383,214 L986.602,214 L986.602,144.867 L1039.03,144.867 C1075.01,144.867 1088.888,118.653 1088.888,91.154 C1088.888,63.655 1075.01,36.927 1039.03,36.927 L969.383,36.927 Z M1039.03,53.889 C1062.674,53.889 1071.926,72.393 1071.926,91.154 C1071.926,109.915 1062.674,127.905 1037.745,127.905 L986.602,127.905 L986.602,53.889 L1039.03,53.889 Z" id="Shape" fill-rule="nonzero"></path>
        </g>
        <g id="Icon" transform="translate(1226, 197)">
            <g id="Group-13" transform="translate(0, 436)">
                <path d="M1079,345.072177 L1079,467.636578 L1078.70798,467.636578 C1078.70798,465.827668 1077.83191,463.999468 1076.09696,462.88926 C1038.12128,438.977441 1009.68516,421.010809 990.7886,408.989363 C990.031926,408.507989 988.9882,407.720392 987.657421,406.626571 L1076.11629,349.798063 C1077.85124,348.689998 1078.70798,346.881088 1078.70798,345.072177 L1079,345.072177 Z" id="Fill-1" fill="#5E3D62"></path>
                <path d="M1076.11607,349.798063 L987.657206,406.626571 L542.715349,123.517079 C541.721188,122.874102 540.572427,122.563329 539.421519,122.563329 L539.421519,0.00107162943 C540.572427,0.00107162943 541.701863,0.311844163 542.715349,0.952678561 L1076.09675,340.327002 C1077.8317,341.435067 1078.70776,343.263267 1078.70776,345.072177 C1078.70776,346.881088 1077.85102,348.689998 1076.11607,349.798063 Z" id="Fill-3" fill="#A78B94"></path>
                <path d="M1076.11607,472.361392 L542.715349,815.040621 C541.682538,815.702888 540.495127,816.03295 539.30557,815.994371 L539.30557,693.449259 C540.495127,693.470692 541.682538,693.157776 542.715349,692.478363 L987.657206,406.6255 L1076.11607,462.628479 C1077.85102,463.736544 1079,465.826596 1079,467.635506 C1079,469.444417 1077.85102,471.253327 1076.11607,472.361392 Z" id="Fill-5" fill="#5E3D62"></path>
                <path d="M539.422593,0 L539.422593,122.564401 C538.273832,122.564401 537.142249,122.894463 536.128763,123.535297 L92.1810672,408.280096 L1.71455218,350.362812 C0.780513107,349.758413 0.196470287,348.864674 0.00107360813,347.891634 L0.00107360813,346.219892 C0.196470287,345.246853 0.780513107,344.353114 1.69522723,343.748715 L536.128763,0.97303952 C537.142249,0.330061864 538.273832,0 539.422593,0" id="Fill-7" fill="#CAAEB6"></path>
                <path d="M539.30557,693.450331 L539.30557,815.993299 C538.195459,815.97401 537.085348,815.663238 536.110512,815.041692 L1.71562578,472.906852 C0.779439499,472.302453 0.195396679,471.408714 0,470.435674 L0,468.763932 C0.195396679,467.810182 0.779439499,466.916443 1.69630084,466.312044 L92.1799936,408.279024 L536.110512,692.477292 C537.085348,693.10098 538.195459,693.431042 539.30557,693.450331" id="Fill-9" fill="#874587"></path>
                <path d="M92.1808525,408.279238 C91.3328681,409.795511 90.5080813,410.89937 89.7064921,411.590813 C75.0132285,424.265087 46.3876884,442.720306 3.82987192,466.95647 C2.9151578,467.560869 0.196255565,467.810396 0.000858886505,468.764147 L0.000858886505,347.89292 C0.196255565,348.863816 0.780298385,349.759699 1.71433745,350.361954 L92.1808525,408.279238 Z" id="Fill-11" fill="#874587"></path>
            </g>
            <g id="Group-26" transform="translate(0, 225)">
                <path d="M1079,345.073275 L1079,467.638066 L1078.70798,467.638066 C1078.70798,465.829149 1076.73932,463.543173 1075.00437,462.432961 C1040.34097,440.620688 1014.39166,424.20885 997.156452,413.197447 C994.981228,411.807718 991.814884,409.617857 987.657421,406.627865 L1076.11629,349.799176 C1077.85124,348.691107 1078.70798,346.882191 1078.70798,345.073275 L1079,345.073275 Z" id="Fill-14" fill="#5E3D62"></path>
                <path d="M1078.70776,345.073275 C1078.70776,346.882191 1077.85102,348.691107 1076.11607,349.799176 L987.657206,406.627865 L542.715349,123.517472 C541.721188,122.874493 540.572427,122.563719 539.421519,122.563719 L539.421519,0.00107163284 C540.572427,0.00107163284 541.701863,0.311845155 542.715349,0.952681592 L1076.09675,340.328085 C1077.8317,341.436153 1078.70776,343.264359 1078.70776,345.073275" id="Fill-16" fill="#A78B94"></path>
                <path d="M1076.11607,472.362895 L542.715349,815.043214 C541.682538,815.705483 540.495127,816.035546 539.30557,816 L539.30557,693.451465 C540.495127,693.472898 541.682538,693.159981 542.715349,692.480566 L987.657206,406.626793 L1076.09675,462.891804 C1077.8317,463.999872 1079,465.829149 1079,467.638066 C1079,469.446982 1077.85102,471.254826 1076.11607,472.362895 Z" id="Fill-18" fill="#5E3D62"></path>
                <path d="M539.422593,0 L539.422593,122.564791 C538.273832,122.564791 537.142249,122.894854 536.128763,123.53569 L92.1810672,408.281394 L1.71455218,350.363926 C0.780513107,349.759525 0.196470287,348.865783 0.00107360813,347.892741 L0.00107360813,346.220994 C0.196470287,345.247951 0.780513107,344.354209 1.69522723,343.749808 L536.128763,0.973042616 C537.142249,0.330062914 538.273832,0 539.422593,0" id="Fill-20" fill="#CAAEB6"></path>
                <path d="M539.30557,693.452537 L539.30557,815.995895 C538.195459,815.976606 537.085348,815.665832 536.110512,815.044285 L1.71562578,472.908356 C0.779439499,472.303955 0.195396679,471.410213 0,470.437171 L0,468.765423 C0.195396679,467.81167 0.779439499,466.917928 1.69630084,466.313527 L92.1799936,408.280323 L536.110512,692.479494 C537.085348,693.103185 538.195459,693.433248 539.30557,693.452537" id="Fill-22" fill="#874587"></path>
                <path d="M92.1808525,408.280537 C89.1938715,411.191335 86.7865022,413.278859 84.9587445,414.543107 C67.6734914,426.499209 41.4113446,444.242212 6.17230402,467.772115 C5.25758989,468.376516 0.196255565,467.811884 0.000858886505,468.765638 L0.000858886505,347.894027 C0.196255565,348.864926 0.780298385,349.760811 1.71433745,350.363069 L92.1808525,408.280537 Z" id="Fill-24" fill="#874587"></path>
            </g>
            <g id="Group-39" transform="translate(1, 0)">
                <path d="M1079,345.073184 L1079,467.637943 L1078.17279,469.462727 C1078.70776,468.087959 1077.29232,464.41964 1075.55737,463.309429 L987.657421,406.627758 L1076.11629,349.799084 C1077.85124,348.691016 1078.70798,346.8821 1078.70798,345.073184 L1079,345.073184 Z" id="Fill-27" fill="#5E3D62"></path>
                <path d="M1078.70776,345.073184 C1078.70776,346.8821 1077.85102,348.691016 1076.11607,349.799084 L987.657206,406.627758 L542.715349,123.51744 C541.721188,122.87446 540.572427,122.563687 539.421519,122.563687 L539.421519,0.00107163255 C540.572427,0.00107163255 541.701863,0.311845074 542.715349,0.952681342 L1076.09675,340.327995 C1077.8317,341.436063 1078.70776,343.264268 1078.70776,345.073184" id="Fill-29" fill="#A78B94"></path>
                <path d="M1078.70776,467.637086 C1078.70776,469.446001 1077.85102,471.254917 1076.11607,472.362985 L542.715349,815.043214 C541.682538,815.705483 540.495127,816.035546 539.30557,816 L539.30557,693.451498 C540.495127,693.47293 541.682538,693.160013 542.715349,692.480598 L987.657206,406.626901 L1076.09675,462.891897 C1077.8317,463.999965 1078.70776,465.82817 1078.70776,467.637086" id="Fill-31" fill="#5E3D62"></path>
                <path d="M539.422593,0 L539.422593,122.564759 C538.273832,122.564759 537.142249,122.894821 536.128763,123.535658 L92.1810672,408.281287 L1.71455218,350.363834 C0.780513107,349.759433 0.196470287,348.865692 0.00107360813,347.892649 L0.00107360813,346.220903 C0.196470287,345.24786 0.780513107,344.354119 1.69522723,343.749718 L536.128763,0.97304236 C537.142249,0.330062827 538.273832,0 539.422593,0" id="Fill-33" fill="#CAAEB6"></path>
                <path d="M539.30557,693.452355 L539.30557,815.995681 C538.195459,815.976391 537.085348,815.665618 536.110512,815.044071 L1.71562578,472.908232 C0.779439499,472.303831 0.195396679,471.410089 0,470.437047 L0,468.7653 C0.195396679,467.811547 0.779439499,466.917806 1.69630084,466.313405 L92.1799936,408.280216 L536.110512,692.479312 C537.085348,693.103003 538.195459,693.433065 539.30557,693.452355" id="Fill-35" fill="#874587"></path>
                <path d="M92.1808525,408.28043 C90.5086811,409.773979 89.1894347,410.83402 88.2231133,411.460551 C69.1867116,423.803138 40.5018732,442.196774 2.16859833,466.641461 C1.25388421,467.245861 0.196255565,467.811762 0.000858886505,468.765515 L0.000858886505,347.893935 C0.196255565,348.864835 0.780298385,349.760719 1.71648467,350.362977 L92.1808525,408.28043 Z" id="Fill-37" fill="#874587"></path>
            </g>
        </g>
    </g>
</svg>