<svg xmlns="http://www.w3.org/2000/svg" xmlns:xlink="http://www.w3.org/1999/xlink" viewBox="0 0 135 38.46"><defs><style>.cls-1{fill:none;}.cls-2{fill:#0f294b;}.cls-3{clip-path:url(#clip-path);}.cls-4{fill:url(#linear-gradient);}.cls-5{clip-path:url(#clip-path-2);}.cls-6{fill:url(#linear-gradient-2);}</style><clipPath id="clip-path" transform="translate(0 8.88)"><path class="cls-1" d="M39.41,1.33A1.72,1.72,0,0,0,38,3v7.4c0,1.69-1.88,3.05-4.19,3.05s-4.18-1.36-4.18-3.05,1.87-3,4.18-3a5.26,5.26,0,0,1,1.9.33V1.6A1.22,1.22,0,0,0,34.49.38h-8.6V12.64a7.68,7.68,0,0,0,7.68,7.68h3.28a7.67,7.67,0,0,0,7.67-7.68V.38Z"/></clipPath><linearGradient id="linear-gradient" x1="1132.81" y1="1632.53" x2="1132.96" y2="1632.53" gradientTransform="matrix(-167.37, 0, 0, 167.37, 189652.59, -273233.26)" gradientUnits="userSpaceOnUse"><stop offset="0" stop-color="#3c2d7a"/><stop offset="0.5" stop-color="#c61881"/><stop offset="1" stop-color="#f99c35"/></linearGradient><clipPath id="clip-path-2" transform="translate(0 8.88)"><path class="cls-1" d="M39.41,1.33A1.72,1.72,0,0,0,38,3v7.4c0,1.69-1.88,3.05-4.19,3.05a5.47,5.47,0,0,1-1.89-.33,5.44,5.44,0,0,0,2.06.4c2.31,0,4.19-1.37,4.19-3.06V3.09a1.73,1.73,0,0,1,1.41-1.7L44.52.47V.38Z"/></clipPath><linearGradient id="linear-gradient-2" x1="1132.87" y1="1629.67" x2="1133.02" y2="1629.67" gradientTransform="matrix(-131.91, 0, 0, 131.91, 149492.04, -214968.45)" xlink:href="#linear-gradient"/></defs><g id="Layer_2" data-name="Layer 2"><g id="Layer_1-2" data-name="Layer 1"><polygon class="cls-2" points="17.07 28.17 17.02 18.15 12.15 26.3 9.78 26.3 4.94 18.42 4.94 28.17 0 28.17 0 9.26 4.4 9.26 11.05 20.17 17.53 9.26 21.93 9.26 21.93 28.17 17.07 28.17"/><polygon class="cls-2" points="65.07 23.93 65.07 28.17 48.14 28.17 48.14 24.82 57.67 13.5 48.38 13.5 48.38 9.26 64.67 9.26 64.67 12.61 55.13 23.93 65.07 23.93"/><rect class="cls-2" x="68.61" y="9.26" width="5.35" height="18.91"/><g class="cls-3"><rect class="cls-4" x="21.57" y="-3.24" width="27.28" height="27.18" transform="translate(4.01 38.55) rotate(-48.14)"/></g><g class="cls-5"><rect class="cls-6" x="29.14" y="-2.08" width="18.17" height="18.09" transform="translate(8.67 41.07) rotate(-50.8)"/></g><path class="cls-2" d="M90.86,9.43h4.72v7.83A12.33,12.33,0,0,1,91.86,19a14.67,14.67,0,0,1-4.22.62,11.37,11.37,0,0,1-5.35-1.24,9.53,9.53,0,0,1-3.72-3.51,9.67,9.67,0,0,1-1.35-5.08,9.67,9.67,0,0,1,1.35-5.08,9.27,9.27,0,0,1,3.75-3.48A11.39,11.39,0,0,1,87.75,0,12.12,12.12,0,0,1,92.5.89,9.21,9.21,0,0,1,96,3.46L92.61,6.54A6,6,0,0,0,88,4.43,5.3,5.3,0,0,0,84.1,5.91a5.25,5.25,0,0,0-1.48,3.92,5.78,5.78,0,0,0,.67,2.81,5,5,0,0,0,1.89,1.92,5.67,5.67,0,0,0,2.79.67,6.76,6.76,0,0,0,2.89-.62Z" transform="translate(0 8.88)"/><path class="cls-2" d="M109.75,11.67l-2.43-6-2.43,6.05Zm1.57,3.94h-8l-1.49,3.67H96.39L104.73.38H110l8.37,18.9h-5.56Z" transform="translate(0 8.88)"/><polygon class="cls-2" points="120.63 9.26 125.98 9.26 125.98 23.93 135 23.93 135 28.17 120.63 28.17 120.63 9.26"/></g></g></svg>